# xmcd
#
# Track frame offsets:
#	150
#	16627
#	44277
#	65637
#	87467
#	108917
#	126000
#	141470
#	156847
#	171267
#	199265
#	228630
#	256302
#	276895
#
# Disc length: 3906 seconds
#
# Revision: 1
# Processed by: cddbd v1.5.1PL2 Copyright (c) Steve Scherf et al.
# Submitted via: audiograbber 1.83.01
#
DISCID=c80f400e
DTITLE=Varios artistas - Lo mejor de Fania CD 3
DYEAR=2001
DGENRE=Salsa
TTITLE0=Celia Cruz and Tito Puente - Pachito Eché
TTITLE1=Willie Colón - Oh que será
TTITLE2=Rubén Blades - La maleta
TTITLE3=Pete El Conde Rodríguez - La rumba es mía
TTITLE4=Johnny Pacheco - Don Toribio
TTITLE5=Cheo Feliciano and Joe Cuba - El ratón
TTITLE6=Celia Cruz - Bemba colorá
TTITLE7=Eddie Palmieri - Ay que rico
TTITLE8=Tito Puente - Pata pata
TTITLE9=Rubén Blades - Pablo Pueblo
TTITLE10=Fania All Stars con Willie Colón - Quiero saber
TTITLE11=Fania All Stars - Coro miyare
TTITLE12=Celia Cruz and Ray Barretto - El chisme
TTITLE13=Cándido - Take more candy
EXTD=
EXTT0=
EXTT1=
EXTT2=
EXTT3=
EXTT4=
EXTT5=
EXTT6=
EXTT7=
EXTT8=
EXTT9=
EXTT10=
EXTT11=
EXTT12=
EXTT13=
PLAYORDER=
